{
	"asset":{
		"generator":"Khronos glTF Blender I/O v3.6.27",
		"version":"2.0"
	},
	"scene":0,
	"scenes":[
		{
			"name":"Scene",
			"nodes":[
				0,
				4
			]
		}
	],
	"nodes":[
		{
			"mesh":0,
			"name":"structure"
		},
		{
			"mesh":1,
			"name":"monkey"
		},
		{
			"mesh":2,
			"name":"sphere"
		},
		{
			"mesh":3,
			"name":"taurus"
		},
		{
			"children":[
				1,
				2,
				3
			],
			"name":"objects"
		}
	],
	"materials":[
		{
			"doubleSided":true,
			"name":"base_material",
			"pbrMetallicRoughness":{
				"baseColorFactor":[
					0.800000011920929,
					0.800000011920929,
					0.800000011920929,
					1
				],
				"metallicFactor":0,
				"roughnessFactor":0.5
			}
		}
	],
	"meshes":[
		{
			"name":"Plane",
			"primitives":[
				{
					"attributes":{
						"POSITION":0,
						"NORMAL":1,
						"TEXCOORD_0":2
					},
					"indices":3,
					"material":0
				}
			]
		},
		{
			"name":"Suzanne",
			"primitives":[
				{
					"attributes":{
						"POSITION":4,
						"NORMAL":5,
						"TEXCOORD_0":6
					},
					"indices":7,
					"material":0
				}
			]
		},
		{
			"name":"Icosphere",
			"primitives":[
				{
					"attributes":{
						"POSITION":8,
						"NORMAL":9,
						"TEXCOORD_0":10
					},
					"indices":11,
					"material":0
				}
			]
		},
		{
			"name":"Torus",
			"primitives":[
				{
					"attributes":{
						"POSITION":12,
						"NORMAL":13,
						"TEXCOORD_0":14
					},
					"indices":15,
					"material":0
				}
			]
		}
	],
	"accessors":[
		{
			"bufferView":0,
			"componentType":5126,
			"count":374,
			"max":[
				5,
				5.000003337860107,
				1.5
			],
			"min":[
				-5,
				0,
				-1.5
			],
			"type":"VEC3"
		},
		{
			"bufferView":1,
			"componentType":5126,
			"count":374,
			"type":"VEC3"
		},
		{
			"bufferView":2,
			"componentType":5126,
			"count":374,
			"type":"VEC2"
		},
		{
			"bufferView":3,
			"componentType":5123,
			"count":672,
			"type":"SCALAR"
		},
		{
			"bufferView":4,
			"componentType":5126,
			"count":1966,
			"max":[
				1.3671875,
				0.984375,
				0.8515625
			],
			"min":[
				-1.3671875,
				-0.984375,
				-0.8515625
			],
			"type":"VEC3"
		},
		{
			"bufferView":5,
			"componentType":5126,
			"count":1966,
			"type":"VEC3"
		},
		{
			"bufferView":6,
			"componentType":5126,
			"count":1966,
			"type":"VEC2"
		},
		{
			"bufferView":7,
			"componentType":5123,
			"count":2904,
			"type":"SCALAR"
		},
		{
			"bufferView":8,
			"componentType":5126,
			"count":240,
			"max":[
				0.9510578513145447,
				1,
				0.9999999403953552
			],
			"min":[
				-0.9510578513145447,
				-1,
				-0.9999999403953552
			],
			"type":"VEC3"
		},
		{
			"bufferView":9,
			"componentType":5126,
			"count":240,
			"type":"VEC3"
		},
		{
			"bufferView":10,
			"componentType":5126,
			"count":240,
			"type":"VEC2"
		},
		{
			"bufferView":11,
			"componentType":5123,
			"count":240,
			"type":"SCALAR"
		},
		{
			"bufferView":12,
			"componentType":5126,
			"count":2304,
			"max":[
				1.25,
				0.25,
				1.25
			],
			"min":[
				-1.25,
				-0.25,
				-1.25
			],
			"type":"VEC3"
		},
		{
			"bufferView":13,
			"componentType":5126,
			"count":2304,
			"type":"VEC3"
		},
		{
			"bufferView":14,
			"componentType":5126,
			"count":2304,
			"type":"VEC2"
		},
		{
			"bufferView":15,
			"componentType":5123,
			"count":3456,
			"type":"SCALAR"
		}
	],
	"bufferViews":[
		{
			"buffer":0,
			"byteLength":4488,
			"byteOffset":0,
			"target":34962
		},
		{
			"buffer":0,
			"byteLength":4488,
			"byteOffset":4488,
			"target":34962
		},
		{
			"buffer":0,
			"byteLength":2992,
			"byteOffset":8976,
			"target":34962
		},
		{
			"buffer":0,
			"byteLength":1344,
			"byteOffset":11968,
			"target":34963
		},
		{
			"buffer":0,
			"byteLength":23592,
			"byteOffset":13312,
			"target":34962
		},
		{
			"buffer":0,
			"byteLength":23592,
			"byteOffset":36904,
			"target":34962
		},
		{
			"buffer":0,
			"byteLength":15728,
			"byteOffset":60496,
			"target":34962
		},
		{
			"buffer":0,
			"byteLength":5808,
			"byteOffset":76224,
			"target":34963
		},
		{
			"buffer":0,
			"byteLength":2880,
			"byteOffset":82032,
			"target":34962
		},
		{
			"buffer":0,
			"byteLength":2880,
			"byteOffset":84912,
			"target":34962
		},
		{
			"buffer":0,
			"byteLength":1920,
			"byteOffset":87792,
			"target":34962
		},
		{
			"buffer":0,
			"byteLength":480,
			"byteOffset":89712,
			"target":34963
		},
		{
			"buffer":0,
			"byteLength":27648,
			"byteOffset":90192,
			"target":34962
		},
		{
			"buffer":0,
			"byteLength":27648,
			"byteOffset":117840,
			"target":34962
		},
		{
			"buffer":0,
			"byteLength":18432,
			"byteOffset":145488,
			"target":34962
		},
		{
			"buffer":0,
			"byteLength":6912,
			"byteOffset":163920,
			"target":34963
		}
	],
	"buffers":[
		{
			"byteLength":170832,
			"uri":"data:application/octet-stream;base64,"
		}
	]
}
